<?xml version="1.0"?>
<svg xmlns="http://www.w3.org/2000/svg" version="1.1" width="2106.50341796875pt" height="601.3123779296875pt" viewBox="-1502.9386071280614 -556.3311975242522 2106.503525700501 601.3123956207089" preserveAspectRatio="none" xmlns:xlink="http://www.w3.org/1999/xlink">
  <defs>
  </defs>
  <path d="M-1101.072265625,-352.38812255859375 L-1064.2247314453125,-295.4495544433594 " stroke="#6E6E6E" fill="none" stroke-width="1" stroke-opacity="1" />
  <path d="M-1061.1279296875,-290.6642150878906 L-1066.0885009765625,-294.2434387207031 L-1062.3609619140625,-296.65570068359375 L-1061.1279296875,-290.6642150878906 " stroke="none" fill="#6E6E6E" fill-rule="evenodd" stroke-width="0" fill-opacity="1" />
  <path d="M-1061.1279296875,-290.6642150878906 L-1066.0885009765625,-294.2434387207031 L-1062.3609619140625,-296.65570068359375 L-1061.1279296875,-290.6642150878906 " stroke="#6E6E6E" fill="none" stroke-width="1" stroke-opacity="1" />
  <path d="M-1118.66552734375,-435.3915710449219 L-1117.52783203125,-405.4840087890625 " stroke="#6E6E6E" fill="none" stroke-width="1" stroke-opacity="1" />
  <path d="M-1117.3111572265625,-399.78814697265625 L-1119.7462158203125,-405.3996276855469 L-1115.3094482421875,-405.56842041015625 L-1117.3111572265625,-399.78814697265625 " stroke="none" fill="#6E6E6E" fill-rule="evenodd" stroke-width="0" fill-opacity="1" />
  <path d="M-1117.3111572265625,-399.78814697265625 L-1119.7462158203125,-405.3996276855469 L-1115.3094482421875,-405.56842041015625 L-1117.3111572265625,-399.78814697265625 " stroke="#6E6E6E" fill="none" stroke-width="1" stroke-opacity="1" />
  <path d="M-708.7265625,-336.84417724609375 L-637.9052124023438,-337.90692138671875 " stroke="#6E6E6E" fill="none" stroke-width="1" stroke-opacity="1" />
  <path d="M-632.205810546875,-337.9924621582031 L-637.8718872070312,-335.6871643066406 L-637.9384765625,-340.1266784667969 L-632.205810546875,-337.9924621582031 " stroke="none" fill="#6E6E6E" fill-rule="evenodd" stroke-width="0" fill-opacity="1" />
  <path d="M-632.205810546875,-337.9924621582031 L-637.8718872070312,-335.6871643066406 L-637.9384765625,-340.1266784667969 L-632.205810546875,-337.9924621582031 " stroke="#6E6E6E" fill="none" stroke-width="1" stroke-opacity="1" />
  <path d="M-899.2276000976562,-342.9407043457031 L-788.8211059570312,-338.14801025390625 " stroke="#6E6E6E" fill="none" stroke-width="1" stroke-opacity="1" />
  <path d="M-783.1265258789062,-337.9007873535156 L-788.91748046875,-335.9300842285156 L-788.7249145507812,-340.36590576171875 L-783.1265258789062,-337.9007873535156 " stroke="none" fill="#6E6E6E" fill-rule="evenodd" stroke-width="0" fill-opacity="1" />
  <path d="M-783.1265258789062,-337.9007873535156 L-788.91748046875,-335.9300842285156 L-788.7249145507812,-340.36590576171875 L-783.1265258789062,-337.9007873535156 " stroke="#6E6E6E" fill="none" stroke-width="1" stroke-opacity="1" />
  <path d="M-370.3500061035156,-313.0500183105469 L-330.45001220703125,-313.0500183105469 " stroke="#6E6E6E" fill="none" stroke-width="1" stroke-opacity="1" />
  <path d="M-324.75,-313.0500183105469 L-330.45001220703125,-310.83001708984375 L-330.45001220703125,-315.2699890136719 L-324.75,-313.0500183105469 " stroke="none" fill="#6E6E6E" fill-rule="evenodd" stroke-width="0" fill-opacity="1" />
  <path d="M-324.75,-313.0500183105469 L-330.45001220703125,-310.83001708984375 L-330.45001220703125,-315.2699890136719 L-324.75,-313.0500183105469 " stroke="#6E6E6E" fill="none" stroke-width="1" stroke-opacity="1" />
  <path d="M-540.3101196289062,-333.9921569824219 L-450.3804016113281,-319.8062438964844 " stroke="#6E6E6E" fill="none" stroke-width="1" stroke-opacity="1" />
  <path d="M-444.7500305175781,-318.9180908203125 L-450.726318359375,-317.6133728027344 L-450.03448486328125,-321.9991455078125 L-444.7500305175781,-318.9180908203125 " stroke="none" fill="#6E6E6E" fill-rule="evenodd" stroke-width="0" fill-opacity="1" />
  <path d="M-444.7500305175781,-318.9180908203125 L-450.726318359375,-317.6133728027344 L-450.03448486328125,-321.9991455078125 L-444.7500305175781,-318.9180908203125 " stroke="#6E6E6E" fill="none" stroke-width="1" stroke-opacity="1" />
  <path d="M-69.11707305908203,-308.1061706542969 L-13.890039443969727,-308.3594665527344 " stroke="#6E6E6E" fill="none" stroke-width="1" stroke-opacity="1" />
  <path d="M-8.19010066986084,-308.3856201171875 L-13.879859924316406,-306.1394958496094 L-13.900221824645996,-310.5794372558594 L-8.19010066986084,-308.3856201171875 " stroke="none" fill="#6E6E6E" fill-rule="evenodd" stroke-width="0" fill-opacity="1" />
  <path d="M-8.19010066986084,-308.3856201171875 L-13.879859924316406,-306.1394958496094 L-13.900221824645996,-310.5794372558594 L-8.19010066986084,-308.3856201171875 " stroke="#6E6E6E" fill="none" stroke-width="1" stroke-opacity="1" />
  <path d="M-186.90570068359375,-310.6955261230469 L-149.2137451171875,-309.4046630859375 " stroke="#6E6E6E" fill="none" stroke-width="1" stroke-opacity="1" />
  <path d="M-143.51707458496094,-309.2095642089844 L-149.2897186279297,-307.18597412109375 L-149.1377410888672,-311.62335205078125 L-143.51707458496094,-309.2095642089844 " stroke="none" fill="#6E6E6E" fill-rule="evenodd" stroke-width="0" fill-opacity="1" />
  <path d="M-143.51707458496094,-309.2095642089844 L-149.2897186279297,-307.18597412109375 L-149.1377410888672,-311.62335205078125 L-143.51707458496094,-309.2095642089844 " stroke="#6E6E6E" fill="none" stroke-width="1" stroke-opacity="1" />
  <path d="M-17.658472061157227,-180.05149841308594 L-363.3432312011719,-165.93972778320312 " stroke="#6E6E6E" fill="none" stroke-width="1" stroke-opacity="1" />
  <path d="M-369.03851318359375,-165.7072296142578 L-363.4338073730469,-168.1578826904297 L-363.2527160644531,-163.72157287597656 L-369.03851318359375,-165.7072296142578 " stroke="none" fill="#6E6E6E" fill-rule="evenodd" stroke-width="0" fill-opacity="1" />
  <path d="M-369.03851318359375,-165.7072296142578 L-363.4338073730469,-168.1578826904297 L-363.2527160644531,-163.72157287597656 L-369.03851318359375,-165.7072296142578 " stroke="#6E6E6E" fill="none" stroke-width="1" stroke-opacity="1" />
  <path d="M-17.658472061157227,-188.353759765625 L-131.6085662841797,-209.13330078125 " stroke="#6E6E6E" fill="none" stroke-width="1" stroke-opacity="1" />
  <path d="M-137.21609497070312,-210.15586853027344 L-131.21031188964844,-211.31727600097656 L-132.0068359375,-206.94931030273438 L-137.21609497070312,-210.15586853027344 " stroke="none" fill="#6E6E6E" fill-rule="evenodd" stroke-width="0" fill-opacity="1" />
  <path d="M-137.21609497070312,-210.15586853027344 L-131.21031188964844,-211.31727600097656 L-132.0068359375,-206.94931030273438 L-137.21609497070312,-210.15586853027344 " stroke="#6E6E6E" fill="none" stroke-width="1" stroke-opacity="1" />
  <path d="M52.771488189697266,-285.26153564453125 L28.876192092895508,-210.6981658935547 " stroke="#6E6E6E" fill="none" stroke-width="1" stroke-opacity="1" />
  <path d="M27.13665771484375,-205.2700958251953 L26.76209831237793,-211.37567138671875 L30.990285873413086,-210.02066040039062 L27.13665771484375,-205.2700958251953 " stroke="none" fill="#6E6E6E" fill-rule="evenodd" stroke-width="0" fill-opacity="1" />
  <path d="M27.13665771484375,-205.2700958251953 L26.76209831237793,-211.37567138671875 L30.990285873413086,-210.02066040039062 L27.13665771484375,-205.2700958251953 " stroke="#6E6E6E" fill="none" stroke-width="1" stroke-opacity="1" />
  <path d="M93.83837127685547,-152.63804626464844 L-271.2990417480469,-64.9849624633789 " stroke="#6E6E6E" fill="none" stroke-width="1" stroke-opacity="1" />
  <path d="M-276.84161376953125,-63.65444564819336 L-271.8172607421875,-67.14363861083984 L-270.7808837890625,-62.826290130615234 L-276.84161376953125,-63.65444564819336 " stroke="none" fill="#6E6E6E" fill-rule="evenodd" stroke-width="0" fill-opacity="1" />
  <path d="M-276.84161376953125,-63.65444564819336 L-271.8172607421875,-67.14363861083984 L-270.7808837890625,-62.826290130615234 L-276.84161376953125,-63.65444564819336 " stroke="#6E6E6E" fill="none" stroke-width="1" stroke-opacity="1" />
  <path d="M110.51917266845703,-137.86810302734375 L73.23731231689453,-94.80693054199219 " stroke="#6E6E6E" fill="none" stroke-width="1" stroke-opacity="1" />
  <path d="M69.50636291503906,-90.49763488769531 L71.55895233154297,-96.2600326538086 L74.91566467285156,-93.35382843017578 L69.50636291503906,-90.49763488769531 " stroke="none" fill="#6E6E6E" fill-rule="evenodd" stroke-width="0" fill-opacity="1" />
  <path d="M69.50636291503906,-90.49763488769531 L71.55895233154297,-96.2600326538086 L74.91566467285156,-93.35382843017578 L69.50636291503906,-90.49763488769531 " stroke="#6E6E6E" fill="none" stroke-width="1" stroke-opacity="1" />
  <path d="M71.4920654296875,-285.3904724121094 L117.17068481445312,-190.40496826171875 " stroke="#6E6E6E" fill="none" stroke-width="1" stroke-opacity="1" />
  <path d="M119.6410140991211,-185.26809692382812 L115.17000579833984,-189.44285583496094 L119.1713638305664,-191.3671112060547 L119.6410140991211,-185.26809692382812 " stroke="none" fill="#6E6E6E" fill-rule="evenodd" stroke-width="0" fill-opacity="1" />
  <path d="M119.6410140991211,-185.26809692382812 L115.17000579833984,-189.44285583496094 L119.1713638305664,-191.3671112060547 L119.6410140991211,-185.26809692382812 " stroke="#6E6E6E" fill="none" stroke-width="1" stroke-opacity="1" />
  <path d="M-618.4970092773438,-52.29127883911133 L-646.38818359375,-49.56874084472656 " stroke="#6E6E6E" fill="none" stroke-width="1" stroke-opacity="1" />
  <path d="M-652.061279296875,-49.014976501464844 L-646.6038818359375,-51.778236389160156 L-646.1725463867188,-47.3592414855957 L-652.061279296875,-49.014976501464844 " stroke="none" fill="#6E6E6E" fill-rule="evenodd" stroke-width="0" fill-opacity="1" />
  <path d="M-652.061279296875,-49.014976501464844 L-646.6038818359375,-51.778236389160156 L-646.1725463867188,-47.3592414855957 L-652.061279296875,-49.014976501464844 " stroke="#6E6E6E" fill="none" stroke-width="1" stroke-opacity="1" />
  <path d="M-1003.6865234375,-247.7047576904297 L-623.5237426757812,-75.09516143798828 " stroke="#6E6E6E" fill="none" stroke-width="1" stroke-opacity="1" />
  <path d="M-618.3336791992188,-72.73865509033203 L-624.4415283203125,-73.07376861572266 L-622.60595703125,-77.11656188964844 L-618.3336791992188,-72.73865509033203 " stroke="none" fill="#6E6E6E" fill-rule="evenodd" stroke-width="0" fill-opacity="1" />
  <path d="M-618.3336791992188,-72.73865509033203 L-624.4415283203125,-73.07376861572266 L-622.60595703125,-77.11656188964844 L-618.3336791992188,-72.73865509033203 " stroke="#6E6E6E" fill="none" stroke-width="1" stroke-opacity="1" />
  <path d="M-429.87799072265625,-49.766841888427734 L-538.4016723632812,-54.17864990234375 " stroke="#6E6E6E" fill="none" stroke-width="1" stroke-opacity="1" />
  <path d="M-544.0970458984375,-54.41018295288086 L-538.3115844726562,-56.396820068359375 L-538.491943359375,-51.960487365722656 L-544.0970458984375,-54.41018295288086 " stroke="none" fill="#6E6E6E" fill-rule="evenodd" stroke-width="0" fill-opacity="1" />
  <path d="M-544.0970458984375,-54.41018295288086 L-538.3115844726562,-56.396820068359375 L-538.491943359375,-51.960487365722656 L-544.0970458984375,-54.41018295288086 " stroke="#6E6E6E" fill="none" stroke-width="1" stroke-opacity="1" />
  <path d="M-704.2561645507812,-198.19883728027344 L-681.6089477539062,-212.267578125 " stroke="#6E6E6E" fill="none" stroke-width="1" stroke-opacity="1" />
  <path d="M-676.7671508789062,-215.275390625 L-680.4375,-210.38182067871094 L-682.7803955078125,-214.15335083007812 L-676.7671508789062,-215.275390625 " stroke="none" fill="#6E6E6E" fill-rule="evenodd" stroke-width="0" fill-opacity="1" />
  <path d="M-676.7671508789062,-215.275390625 L-680.4375,-210.38182067871094 L-682.7803955078125,-214.15335083007812 L-676.7671508789062,-215.275390625 " stroke="#6E6E6E" fill="none" stroke-width="1" stroke-opacity="1" />
  <path d="M-993.6192016601562,-251.50765991210938 L-781.390625,-189.29681396484375 " stroke="#6E6E6E" fill="none" stroke-width="1" stroke-opacity="1" />
  <path d="M-775.9207763671875,-187.6934356689453 L-782.0150756835938,-187.1664581298828 L-780.76611328125,-191.42718505859375 L-775.9207763671875,-187.6934356689453 " stroke="none" fill="#6E6E6E" fill-rule="evenodd" stroke-width="0" fill-opacity="1" />
  <path d="M-775.9207763671875,-187.6934356689453 L-782.0150756835938,-187.1664581298828 L-780.76611328125,-191.42718505859375 L-775.9207763671875,-187.6934356689453 " stroke="#6E6E6E" fill="none" stroke-width="1" stroke-opacity="1" />
  <path d="M-499.4631042480469,-165.98793029785156 L-695.8265380859375,-174.85255432128906 " stroke="#6E6E6E" fill="none" stroke-width="1" stroke-opacity="1" />
  <path d="M-701.520751953125,-175.10960388183594 L-695.7264404296875,-177.07029724121094 L-695.9266357421875,-172.6348114013672 L-701.520751953125,-175.10960388183594 " stroke="none" fill="#6E6E6E" fill-rule="evenodd" stroke-width="0" fill-opacity="1" />
  <path d="M-701.520751953125,-175.10960388183594 L-695.7264404296875,-177.07029724121094 L-695.9266357421875,-172.6348114013672 L-701.520751953125,-175.10960388183594 " stroke="#6E6E6E" fill="none" stroke-width="1" stroke-opacity="1" />
  <path d="M-1039.5126953125,-465.2203063964844 C-1039.5126953125,-448.734619140625 -1075.4586181640625,-435.37030029296875 -1119.8001708984375,-435.37030029296875 C-1164.1417236328125,-435.37030029296875 -1200.087646484375,-448.7345886230469 -1200.087646484375,-465.2203063964844 C-1200.087646484375,-465.2203063964844 -1200.087646484375,-465.2203063964844 -1200.087646484375,-465.2203063964844 L-1200.087646484375,-465.22027587890625 C-1200.0877685546875,-481.7059631347656 -1164.141845703125,-495.0702819824219 -1119.80029296875,-495.0702819824219 C-1075.458740234375,-495.0703125 -1039.5126953125,-481.7060241699219 -1039.5126953125,-465.2203063964844 C-1039.5126953125,-465.2203063964844 -1039.5126953125,-465.2203063964844 -1039.5126953125,-465.2203063964844 " stroke="none" fill="#70AECC" fill-rule="evenodd" stroke-width="0" fill-opacity="1" />
  <text x="18.939523696899414" y="45.096717834472656" dx="0" dy="0" font-family="Arial" font-size="8.999999731779106pt" fill="#000000" style="text-anchor:start" transform="matrix(0.750000 0.000000 0.000000 0.750000 -1200.087646484375 -495.0702819824219)">Chapel_Hill_Transit_Bus_Stops</text>
  <path d="M-1039.5126953125,-465.2203063964844 C-1039.5126953125,-448.734619140625 -1075.4586181640625,-435.37030029296875 -1119.8001708984375,-435.37030029296875 C-1164.1417236328125,-435.37030029296875 -1200.087646484375,-448.7345886230469 -1200.087646484375,-465.2203063964844 C-1200.087646484375,-465.2203063964844 -1200.087646484375,-465.2203063964844 -1200.087646484375,-465.2203063964844 L-1200.087646484375,-465.22027587890625 C-1200.0877685546875,-481.7059631347656 -1164.141845703125,-495.0702819824219 -1119.80029296875,-495.0702819824219 C-1075.458740234375,-495.0703125 -1039.5126953125,-481.7060241699219 -1039.5126953125,-465.2203063964844 C-1039.5126953125,-465.2203063964844 -1039.5126953125,-465.2203063964844 -1039.5126953125,-465.2203063964844 " stroke="none" fill="none" stroke-width="0.75" stroke-opacity="0" />
  <path d="M-1145.1055908203125,-399.78814697265625 L-1087.7135009765625,-399.78814697265625 L-1087.7135009765625,-399.78814697265625 C-1083.0169677734375,-399.7881774902344 -1079.2095947265625,-395.9808349609375 -1079.2095947265625,-391.28424072265625 C-1079.2095947265625,-391.28424072265625 -1079.2095947265625,-391.2842102050781 -1079.2095947265625,-391.2842102050781 L-1079.2095947265625,-391.2842102050781 L-1079.2095947265625,-360.89208984375 L-1079.2095947265625,-360.89208984375 C-1079.2095947265625,-356.19549560546875 -1083.016845703125,-352.3881530761719 -1087.7135009765625,-352.3881530761719 L-1087.7135009765625,-352.3881530761719 L-1145.1055908203125,-352.3881530761719 L-1145.1055908203125,-352.3881530761719 C-1149.80224609375,-352.3881530761719 -1153.6094970703125,-356.19549560546875 -1153.6094970703125,-360.89208984375 L-1153.6094970703125,-391.2842102050781 L-1153.609619140625,-391.2842102050781 C-1153.609619140625,-395.9808044433594 -1149.80224609375,-399.78814697265625 -1145.1055908203125,-399.7881774902344 " stroke="none" fill="#F2E279" fill-rule="evenodd" stroke-width="0" fill-opacity="1" />
  <text x="30.40618896484375" y="36.89672088623047" dx="0" dy="0" font-family="Arial" font-size="8.999999731779106pt" fill="#000000" style="text-anchor:start" transform="matrix(0.750000 0.000000 0.000000 0.750000 -1153.6094970703125 -399.78814697265625)">Buffer</text>
  <path d="M-1145.1055908203125,-399.78814697265625 L-1087.7135009765625,-399.78814697265625 L-1087.7135009765625,-399.78814697265625 C-1083.0169677734375,-399.7881774902344 -1079.2095947265625,-395.9808349609375 -1079.2095947265625,-391.28424072265625 C-1079.2095947265625,-391.28424072265625 -1079.2095947265625,-391.2842102050781 -1079.2095947265625,-391.2842102050781 L-1079.2095947265625,-391.2842102050781 L-1079.2095947265625,-360.89208984375 L-1079.2095947265625,-360.89208984375 C-1079.2095947265625,-356.19549560546875 -1083.016845703125,-352.3881530761719 -1087.7135009765625,-352.3881530761719 L-1087.7135009765625,-352.3881530761719 L-1145.1055908203125,-352.3881530761719 L-1145.1055908203125,-352.3881530761719 C-1149.80224609375,-352.3881530761719 -1153.6094970703125,-356.19549560546875 -1153.6094970703125,-360.89208984375 L-1153.6094970703125,-391.2842102050781 L-1153.609619140625,-391.2842102050781 C-1153.609619140625,-395.9808044433594 -1149.80224609375,-399.78814697265625 -1145.1055908203125,-399.7881774902344 " stroke="none" fill="none" stroke-width="0.75" stroke-opacity="0" />
  <path d="M-979.2474365234375,-266.7624206542969 C-979.2474365234375,-253.17620849609375 -1008.9813232421875,-242.16241455078125 -1045.659912109375,-242.16241455078125 C-1082.3385009765625,-242.1623992919922 -1112.0723876953125,-253.1761932373047 -1112.0723876953125,-266.7624206542969 C-1112.0723876953125,-266.7624206542969 -1112.0723876953125,-266.7624206542969 -1112.0723876953125,-266.7624206542969 L-1112.072509765625,-266.76239013671875 C-1112.072509765625,-280.3486022949219 -1082.338623046875,-291.3623962402344 -1045.6600341796875,-291.3623962402344 C-1008.9813842773438,-291.3624267578125 -979.2474365234375,-280.3486328125 -979.2474365234375,-266.7624206542969 C-979.2474365234375,-266.7624206542969 -979.2474365234375,-266.7624206542969 -979.2474365234375,-266.7624206542969 " stroke="none" fill="#83CC7C" fill-rule="evenodd" stroke-width="0" fill-opacity="1" />
  <text x="27.01352310180664" y="38.096717834472656" dx="0" dy="0" font-family="Arial" font-size="8.999999731779106pt" fill="#000000" style="text-anchor:start" transform="matrix(0.750000 0.000000 0.000000 0.750000 -1112.0723876953125 -291.3623962402344)">QuarterMileBusBuffer</text>
  <path d="M-979.2474365234375,-266.7624206542969 C-979.2474365234375,-253.17620849609375 -1008.9813232421875,-242.16241455078125 -1045.659912109375,-242.16241455078125 C-1082.3385009765625,-242.1623992919922 -1112.0723876953125,-253.1761932373047 -1112.0723876953125,-266.7624206542969 C-1112.0723876953125,-266.7624206542969 -1112.0723876953125,-266.7624206542969 -1112.0723876953125,-266.7624206542969 L-1112.072509765625,-266.76239013671875 C-1112.072509765625,-280.3486022949219 -1082.338623046875,-291.3623962402344 -1045.6600341796875,-291.3623962402344 C-1008.9813842773438,-291.3624267578125 -979.2474365234375,-280.3486328125 -979.2474365234375,-266.7624206542969 C-979.2474365234375,-266.7624206542969 -979.2474365234375,-266.7624206542969 -979.2474365234375,-266.7624206542969 " stroke="none" fill="none" stroke-width="0.75" stroke-opacity="0" />
  <path d="M-774.6226196289062,-359.9859313964844 L-717.23046875,-359.9859313964844 L-717.2305297851562,-359.9859313964844 C-712.533935546875,-359.9859619140625 -708.7265625,-356.1786193847656 -708.7265625,-351.4820251464844 C-708.7265625,-351.4820251464844 -708.7265625,-351.48199462890625 -708.7265625,-351.48199462890625 L-708.7265625,-351.48199462890625 L-708.7265625,-321.0898742675781 L-708.7265625,-321.0898742675781 C-708.7265625,-316.3932800292969 -712.5338745117188,-312.5859375 -717.23046875,-312.5859375 L-717.23046875,-312.5859375 L-774.6226196289062,-312.5859375 L-774.6226196289062,-312.5859375 C-779.3192138671875,-312.5859375 -783.1265258789062,-316.3932800292969 -783.1265258789062,-321.0898742675781 L-783.1265258789062,-351.48199462890625 L-783.1265869140625,-351.48199462890625 C-783.1265869140625,-356.1785888671875 -779.3192138671875,-359.9859313964844 -774.6226196289062,-359.9859619140625 " stroke="none" fill="#F2E279" fill-rule="evenodd" stroke-width="0" fill-opacity="1" />
  <text x="17.952856063842773" y="29.996719360351562" dx="0" dy="0" font-family="Arial" font-size="8.999999731779106pt" fill="#000000" style="text-anchor:start" transform="matrix(0.750000 0.000000 0.000000 0.750000 -783.1265258789062 -359.9859313964844)">Polygon to </text>
  <text x="28.3028564453125" y="43.79671859741211" dx="0" dy="0" font-family="Arial" font-size="8.999999731779106pt" fill="#000000" style="text-anchor:start" transform="matrix(0.750000 0.000000 0.000000 0.750000 -783.1265258789062 -359.9859313964844)">Raster</text>
  <path d="M-774.6226196289062,-359.9859313964844 L-717.23046875,-359.9859313964844 L-717.2305297851562,-359.9859313964844 C-712.533935546875,-359.9859619140625 -708.7265625,-356.1786193847656 -708.7265625,-351.4820251464844 C-708.7265625,-351.4820251464844 -708.7265625,-351.48199462890625 -708.7265625,-351.48199462890625 L-708.7265625,-351.48199462890625 L-708.7265625,-321.0898742675781 L-708.7265625,-321.0898742675781 C-708.7265625,-316.3932800292969 -712.5338745117188,-312.5859375 -717.23046875,-312.5859375 L-717.23046875,-312.5859375 L-774.6226196289062,-312.5859375 L-774.6226196289062,-312.5859375 C-779.3192138671875,-312.5859375 -783.1265258789062,-316.3932800292969 -783.1265258789062,-321.0898742675781 L-783.1265258789062,-351.48199462890625 L-783.1265869140625,-351.48199462890625 C-783.1265869140625,-356.1785888671875 -779.3192138671875,-359.9859313964844 -774.6226196289062,-359.9859619140625 " stroke="none" fill="none" stroke-width="0.75" stroke-opacity="0" />
  <path d="M-557.8500366210938,-338.5500183105469 C-557.8500366210938,-325.46087646484375 -574.5050659179688,-314.8500061035156 -595.0499877929688,-314.8500061035156 C-615.5950317382812,-314.8500061035156 -632.25,-325.4608459472656 -632.2500610351562,-338.54998779296875 L-632.2500610351562,-338.54998779296875 C-632.2500610351562,-351.63916015625 -615.5950317382812,-362.25 -595.050048828125,-362.25 C-574.5050659179688,-362.2500305175781 -557.8500366210938,-351.6391906738281 -557.8500366210938,-338.5500183105469 C-557.8500366210938,-338.5500183105469 -557.8500366210938,-338.5500183105469 -557.8500366210938,-338.5500183105469 " stroke="none" fill="#83CC7C" fill-rule="evenodd" stroke-width="0" fill-opacity="1" />
  <text x="3.965522289276123" y="36.89672088623047" dx="0" dy="0" font-family="Arial" font-size="8.999999731779106pt" fill="#000000" style="text-anchor:start" transform="matrix(0.750000 0.000000 0.000000 0.750000 -632.25 -362.25)">ZoningDistrict</text>
  <text x="74.98485565185547" y="36.89672088623047" dx="0" dy="0" font-family="Arial" font-size="8.999999731779106pt" fill="#000000" style="text-anchor:start" transform="matrix(0.750000 0.000000 0.000000 0.750000 -632.25 -362.25)"> ...</text>
  <path d="M-557.8500366210938,-338.5500183105469 C-557.8500366210938,-325.46087646484375 -574.5050659179688,-314.8500061035156 -595.0499877929688,-314.8500061035156 C-615.5950317382812,-314.8500061035156 -632.25,-325.4608459472656 -632.2500610351562,-338.54998779296875 L-632.2500610351562,-338.54998779296875 C-632.2500610351562,-351.63916015625 -615.5950317382812,-362.25 -595.050048828125,-362.25 C-574.5050659179688,-362.2500305175781 -557.8500366210938,-351.6391906738281 -557.8500366210938,-338.5500183105469 C-557.8500366210938,-338.5500183105469 -557.8500366210938,-338.5500183105469 -557.8500366210938,-338.5500183105469 " stroke="none" fill="none" stroke-width="0.75" stroke-opacity="0" />
  <path d="M-899.1000366210938,-344.5500183105469 C-899.1000366210938,-331.46087646484375 -915.7550659179688,-320.8500061035156 -936.2999877929688,-320.8500061035156 C-956.8450317382812,-320.8500061035156 -973.5,-331.4608459472656 -973.5000610351562,-344.54998779296875 L-973.5000610351562,-344.54998779296875 C-973.5000610351562,-357.63916015625 -956.8450317382812,-368.25 -936.300048828125,-368.25 C-915.7550659179688,-368.2500305175781 -899.1000366210938,-357.6391906738281 -899.1000366210938,-344.5500183105469 C-899.1000366210938,-344.5500183105469 -899.1000366210938,-344.5500183105469 -899.1000366210938,-344.5500183105469 " stroke="none" fill="#70AECC" fill-rule="evenodd" stroke-width="0" fill-opacity="1" />
  <text x="3.6288557052612305" y="29.996719360351562" dx="0" dy="0" font-family="Arial" font-size="8.999999731779106pt" fill="#000000" style="text-anchor:start" transform="matrix(0.750000 0.000000 0.000000 0.750000 -973.5 -368.25)">Zoning_Districts </text>
  <text x="40.97685623168945" y="43.79671859741211" dx="0" dy="0" font-family="Arial" font-size="8.999999731779106pt" fill="#000000" style="text-anchor:start" transform="matrix(0.750000 0.000000 0.000000 0.750000 -973.5 -368.25)">(2)</text>
  <path d="M-899.1000366210938,-344.5500183105469 C-899.1000366210938,-331.46087646484375 -915.7550659179688,-320.8500061035156 -936.2999877929688,-320.8500061035156 C-956.8450317382812,-320.8500061035156 -973.5,-331.4608459472656 -973.5000610351562,-344.54998779296875 L-973.5000610351562,-344.54998779296875 C-973.5000610351562,-357.63916015625 -956.8450317382812,-368.25 -936.300048828125,-368.25 C-915.7550659179688,-368.2500305175781 -899.1000366210938,-357.6391906738281 -899.1000366210938,-344.5500183105469 C-899.1000366210938,-344.5500183105469 -899.1000366210938,-344.5500183105469 -899.1000366210938,-344.5500183105469 " stroke="none" fill="none" stroke-width="0.75" stroke-opacity="0" />
  <path d="M-436.2460632324219,-336.75 L-378.85394287109375,-336.75 L-378.8539733886719,-336.75 C-374.1573791503906,-336.7500305175781 -370.35003662109375,-332.94268798828125 -370.35003662109375,-328.24609375 C-370.35003662109375,-328.24609375 -370.35003662109375,-328.2460632324219 -370.35003662109375,-328.2460632324219 L-370.3500061035156,-328.2460632324219 L-370.3500061035156,-297.85394287109375 L-370.35003662109375,-297.85394287109375 C-370.35003662109375,-293.1573486328125 -374.1573486328125,-289.3500061035156 -378.85394287109375,-289.3500061035156 L-378.85394287109375,-289.3500061035156 L-436.2460632324219,-289.3500061035156 L-436.2460632324219,-289.3500061035156 C-440.9426574707031,-289.3500061035156 -444.75,-293.1573486328125 -444.75,-297.85394287109375 L-444.75,-328.2460632324219 L-444.7500305175781,-328.2460632324219 C-444.7500305175781,-332.9426574707031 -440.94268798828125,-336.75 -436.24609375,-336.7500305175781 " stroke="none" fill="#F2E279" fill-rule="evenodd" stroke-width="0" fill-opacity="1" />
  <text x="18.63619041442871" y="36.89672088623047" dx="0" dy="0" font-family="Arial" font-size="8.999999731779106pt" fill="#000000" style="text-anchor:start" transform="matrix(0.750000 0.000000 0.000000 0.750000 -444.75 -336.75)">Reclassify</text>
  <path d="M-436.2460632324219,-336.75 L-378.85394287109375,-336.75 L-378.8539733886719,-336.75 C-374.1573791503906,-336.7500305175781 -370.35003662109375,-332.94268798828125 -370.35003662109375,-328.24609375 C-370.35003662109375,-328.24609375 -370.35003662109375,-328.2460632324219 -370.35003662109375,-328.2460632324219 L-370.3500061035156,-328.2460632324219 L-370.3500061035156,-297.85394287109375 L-370.35003662109375,-297.85394287109375 C-370.35003662109375,-293.1573486328125 -374.1573486328125,-289.3500061035156 -378.85394287109375,-289.3500061035156 L-378.85394287109375,-289.3500061035156 L-436.2460632324219,-289.3500061035156 L-436.2460632324219,-289.3500061035156 C-440.9426574707031,-289.3500061035156 -444.75,-293.1573486328125 -444.75,-297.85394287109375 L-444.75,-328.2460632324219 L-444.7500305175781,-328.2460632324219 C-444.7500305175781,-332.9426574707031 -440.94268798828125,-336.75 -436.24609375,-336.7500305175781 " stroke="none" fill="none" stroke-width="0.75" stroke-opacity="0" />
  <path d="M-186.55909729003906,-313.0500183105469 C-186.55909729003906,-299.96087646484375 -217.4941864013672,-289.3500061035156 -255.65452575683594,-289.3500061035156 C-293.81488037109375,-289.3500061035156 -324.75,-299.96087646484375 -324.75,-313.0500183105469 C-324.75,-313.0500183105469 -324.75,-313.0500183105469 -324.75,-313.0500183105469 L-324.7500305175781,-313.04998779296875 C-324.75006103515625,-326.13916015625 -293.8149719238281,-336.75 -255.65460205078125,-336.75 C-217.49423217773438,-336.7500305175781 -186.5591278076172,-326.1391906738281 -186.55909729003906,-313.0500183105469 C-186.55909729003906,-313.0500183105469 -186.55909729003906,-313.0500183105469 -186.55909729003906,-313.0500183105469 " stroke="none" fill="#83CC7C" fill-rule="evenodd" stroke-width="0" fill-opacity="1" />
  <text x="38.475521087646484" y="36.89672088623047" dx="0" dy="0" font-family="Arial" font-size="8.999999731779106pt" fill="#000000" style="text-anchor:start" transform="matrix(0.750000 0.000000 0.000000 0.750000 -324.75 -336.75)">ZoningReclassified</text>
  <path d="M-186.55909729003906,-313.0500183105469 C-186.55909729003906,-299.96087646484375 -217.4941864013672,-289.3500061035156 -255.65452575683594,-289.3500061035156 C-293.81488037109375,-289.3500061035156 -324.75,-299.96087646484375 -324.75,-313.0500183105469 C-324.75,-313.0500183105469 -324.75,-313.0500183105469 -324.75,-313.0500183105469 L-324.7500305175781,-313.04998779296875 C-324.75006103515625,-326.13916015625 -293.8149719238281,-336.75 -255.65460205078125,-336.75 C-217.49423217773438,-336.7500305175781 -186.5591278076172,-326.1391906738281 -186.55909729003906,-313.0500183105469 C-186.55909729003906,-313.0500183105469 -186.55909729003906,-313.0500183105469 -186.55909729003906,-313.0500183105469 " stroke="none" fill="none" stroke-width="0.75" stroke-opacity="0" />
  <path d="M-538.0250854492188,-342.3081970214844 C-538.0250854492188,-326.1414794921875 -562.6510009765625,-313.0357666015625 -593.0286254882812,-313.0357666015625 C-623.40625,-313.0357666015625 -648.0321655273438,-326.1414794921875 -648.0321655273438,-342.3081970214844 C-648.0321655273438,-342.3081970214844 -648.0321655273438,-342.3081970214844 -648.0321655273438,-342.3081970214844 L-648.0322265625,-342.3081970214844 C-648.0322265625,-358.47491455078125 -623.4063110351562,-371.58062744140625 -593.0286865234375,-371.58062744140625 C-562.6510620117188,-371.5806579589844 -538.0250854492188,-358.4749450683594 -538.0250854492188,-342.3081970214844 C-538.0250854492188,-342.3081970214844 -538.0250854492188,-342.3081970214844 -538.0250854492188,-342.3081970214844 " stroke="none" fill="#70AECC" fill-rule="evenodd" stroke-width="0" fill-opacity="1" />
  <text x="7.032188892364502" y="44.32663345336914" dx="0" dy="0" font-family="Arial" font-size="8.999999731779106pt" fill="#000000" style="text-anchor:start" transform="matrix(0.750000 0.000000 0.000000 0.750000 -648.0321655273438 -371.58062744140625)">ZoningDistrictRaster (2)</text>
  <path d="M-538.0250854492188,-342.3081970214844 C-538.0250854492188,-326.1414794921875 -562.6510009765625,-313.0357666015625 -593.0286254882812,-313.0357666015625 C-623.40625,-313.0357666015625 -648.0321655273438,-326.1414794921875 -648.0321655273438,-342.3081970214844 C-648.0321655273438,-342.3081970214844 -648.0321655273438,-342.3081970214844 -648.0321655273438,-342.3081970214844 L-648.0322265625,-342.3081970214844 C-648.0322265625,-358.47491455078125 -623.4063110351562,-371.58062744140625 -593.0286865234375,-371.58062744140625 C-562.6510620117188,-371.5806579589844 -538.0250854492188,-358.4749450683594 -538.0250854492188,-342.3081970214844 C-538.0250854492188,-342.3081970214844 -538.0250854492188,-342.3081970214844 -538.0250854492188,-342.3081970214844 " stroke="none" fill="none" stroke-width="0.75" stroke-opacity="0" />
  <path d="M-135.0131378173828,-331.63555908203125 L-77.62101745605469,-331.63555908203125 L-77.62103271484375,-331.63555908203125 C-72.92444610595703,-331.6355895996094 -69.1170883178711,-327.8282470703125 -69.1170883178711,-323.13165283203125 C-69.1170883178711,-323.13165283203125 -69.1170883178711,-323.1316223144531 -69.1170883178711,-323.1316223144531 L-69.11708068847656,-323.1316223144531 L-69.11708068847656,-292.739501953125 L-69.1170883178711,-292.739501953125 C-69.1170883178711,-288.04290771484375 -72.92442321777344,-284.2355651855469 -77.62101745605469,-284.2355651855469 L-77.62101745605469,-284.2355651855469 L-135.0131378173828,-284.2355651855469 L-135.0131378173828,-284.2355651855469 C-139.70973205566406,-284.2355651855469 -143.51707458496094,-288.04290771484375 -143.51707458496094,-292.739501953125 L-143.51707458496094,-323.1316223144531 L-143.51708984375,-323.1316223144531 C-143.51708984375,-327.8282165527344 -139.70974731445312,-331.63555908203125 -135.01315307617188,-331.6355895996094 " stroke="none" fill="#F2E279" fill-rule="evenodd" stroke-width="0" fill-opacity="1" />
  <text x="21.63619041442871" y="29.996719360351562" dx="0" dy="0" font-family="Arial" font-size="8.999999731779106pt" fill="#000000" style="text-anchor:start" transform="matrix(0.750000 0.000000 0.000000 0.750000 -143.51707458496094 -331.63555908203125)">Raster to </text>
  <text x="24.626190185546875" y="43.79671859741211" dx="0" dy="0" font-family="Arial" font-size="8.999999731779106pt" fill="#000000" style="text-anchor:start" transform="matrix(0.750000 0.000000 0.000000 0.750000 -143.51707458496094 -331.63555908203125)">Polygon</text>
  <path d="M-135.0131378173828,-331.63555908203125 L-77.62101745605469,-331.63555908203125 L-77.62103271484375,-331.63555908203125 C-72.92444610595703,-331.6355895996094 -69.1170883178711,-327.8282470703125 -69.1170883178711,-323.13165283203125 C-69.1170883178711,-323.13165283203125 -69.1170883178711,-323.1316223144531 -69.1170883178711,-323.1316223144531 L-69.11708068847656,-323.1316223144531 L-69.11708068847656,-292.739501953125 L-69.1170883178711,-292.739501953125 C-69.1170883178711,-288.04290771484375 -72.92442321777344,-284.2355651855469 -77.62101745605469,-284.2355651855469 L-77.62101745605469,-284.2355651855469 L-135.0131378173828,-284.2355651855469 L-135.0131378173828,-284.2355651855469 C-139.70973205566406,-284.2355651855469 -143.51707458496094,-288.04290771484375 -143.51707458496094,-292.739501953125 L-143.51707458496094,-323.1316223144531 L-143.51708984375,-323.1316223144531 C-143.51708984375,-327.8282165527344 -139.70974731445312,-331.63555908203125 -135.01315307617188,-331.6355895996094 " stroke="none" fill="none" stroke-width="0.75" stroke-opacity="0" />
  <path d="M128.80128479003906,-308.6996154785156 C128.80128479003906,-295.6104736328125 98.12445831298828,-284.9996032714844 60.28269958496094,-284.9996032714844 C22.4409122467041,-284.9996032714844 -8.235932350158691,-295.6104736328125 -8.235943794250488,-308.6996154785156 C-8.235943794250488,-308.6996154785156 -8.235943794250488,-308.6996154785156 -8.235943794250488,-308.6996154785156 L-8.235949516296387,-308.6995849609375 C-8.235978126525879,-321.78875732421875 22.440832138061523,-332.39959716796875 60.282623291015625,-332.39959716796875 C98.1244125366211,-332.3996276855469 128.80125427246094,-321.7887878417969 128.80128479003906,-308.6996154785156 C128.80128479003906,-308.6996154785156 128.80128479003906,-308.6996154785156 128.80128479003906,-308.6996154785156 " stroke="none" fill="#83CC7C" fill-rule="evenodd" stroke-width="0" fill-opacity="1" />
  <text x="31.705522537231445" y="36.89672088623047" dx="0" dy="0" font-family="Arial" font-size="8.999999731779106pt" fill="#000000" style="text-anchor:start" transform="matrix(0.750000 0.000000 0.000000 0.750000 -8.235943794250488 -332.39959716796875)">ZoningReclassVector</text>
  <path d="M128.80128479003906,-308.6996154785156 C128.80128479003906,-295.6104736328125 98.12445831298828,-284.9996032714844 60.28269958496094,-284.9996032714844 C22.4409122467041,-284.9996032714844 -8.235932350158691,-295.6104736328125 -8.235943794250488,-308.6996154785156 C-8.235943794250488,-308.6996154785156 -8.235943794250488,-308.6996154785156 -8.235943794250488,-308.6996154785156 L-8.235949516296387,-308.6995849609375 C-8.235978126525879,-321.78875732421875 22.440832138061523,-332.39959716796875 60.282623291015625,-332.39959716796875 C98.1244125366211,-332.3996276855469 128.80125427246094,-321.7887878417969 128.80128479003906,-308.6996154785156 C128.80128479003906,-308.6996154785156 128.80128479003906,-308.6996154785156 128.80128479003906,-308.6996154785156 " stroke="none" fill="none" stroke-width="0.75" stroke-opacity="0" />
  <path d="M-9.154533386230469,-205.27008056640625 L48.237586975097656,-205.27008056640625 L48.237571716308594,-205.27008056640625 C52.93415832519531,-205.2700958251953 56.74151611328125,-201.46275329589844 56.74151611328125,-196.7661590576172 C56.74151611328125,-196.7661590576172 56.74151611328125,-196.76614379882812 56.74151611328125,-196.76614379882812 L56.74152374267578,-196.76614379882812 L56.74152374267578,-166.3740234375 L56.74151611328125,-166.3740234375 C56.74151611328125,-161.67742919921875 52.934181213378906,-157.87008666992188 48.237586975097656,-157.87008666992188 L48.237586975097656,-157.87008666992188 L-9.154533386230469,-157.87008666992188 L-9.154528617858887,-157.87008666992188 C-13.851123809814453,-157.87008666992188 -17.65846824645996,-161.67742919921875 -17.658470153808594,-166.3740234375 L-17.658470153808594,-196.76614379882812 L-17.658472061157227,-196.76614379882812 C-17.658475875854492,-201.46273803710938 -13.851136207580566,-205.27008056640625 -9.154542922973633,-205.2700958251953 " stroke="none" fill="#F2E279" fill-rule="evenodd" stroke-width="0" fill-opacity="1" />
  <text x="4.286189079284668" y="29.996719360351562" dx="0" dy="0" font-family="Arial" font-size="8.999999731779106pt" fill="#000000" style="text-anchor:start" transform="matrix(0.750000 0.000000 0.000000 0.750000 -17.658470153808594 -205.27008056640625)">Select Layer By </text>
  <text x="23.96285629272461" y="43.79671859741211" dx="0" dy="0" font-family="Arial" font-size="8.999999731779106pt" fill="#000000" style="text-anchor:start" transform="matrix(0.750000 0.000000 0.000000 0.750000 -17.658470153808594 -205.27008056640625)">Attribute</text>
  <path d="M-9.154533386230469,-205.27008056640625 L48.237586975097656,-205.27008056640625 L48.237571716308594,-205.27008056640625 C52.93415832519531,-205.2700958251953 56.74151611328125,-201.46275329589844 56.74151611328125,-196.7661590576172 C56.74151611328125,-196.7661590576172 56.74151611328125,-196.76614379882812 56.74151611328125,-196.76614379882812 L56.74152374267578,-196.76614379882812 L56.74152374267578,-166.3740234375 L56.74151611328125,-166.3740234375 C56.74151611328125,-161.67742919921875 52.934181213378906,-157.87008666992188 48.237586975097656,-157.87008666992188 L48.237586975097656,-157.87008666992188 L-9.154533386230469,-157.87008666992188 L-9.154528617858887,-157.87008666992188 C-13.851123809814453,-157.87008666992188 -17.65846824645996,-161.67742919921875 -17.658470153808594,-166.3740234375 L-17.658470153808594,-196.76614379882812 L-17.658472061157227,-196.76614379882812 C-17.658475875854492,-201.46273803710938 -13.851136207580566,-205.27008056640625 -9.154542922973633,-205.2700958251953 " stroke="none" fill="none" stroke-width="0.75" stroke-opacity="0" />
  <path d="M-368.7947692871094,-163.04458618164062 C-368.7947692871094,-143.09988403320312 -398.106201171875,-126.93151092529297 -434.2636413574219,-126.93150329589844 C-470.4211120605469,-126.93150329589844 -499.7325439453125,-143.09986877441406 -499.7325439453125,-163.04457092285156 C-499.7325439453125,-163.04457092285156 -499.7325439453125,-163.04457092285156 -499.7325439453125,-163.04457092285156 L-499.7325744628906,-163.04454040527344 C-499.73260498046875,-182.98924255371094 -470.42120361328125,-199.1576385498047 -434.2637023925781,-199.1576385498047 C-398.10626220703125,-199.15765380859375 -368.7947998046875,-182.9893035888672 -368.7947692871094,-163.04457092285156 C-368.7947692871094,-163.04457092285156 -368.7947692871094,-163.04457092285156 -368.7947692871094,-163.04457092285156 " stroke="none" fill="#83CC7C" fill-rule="evenodd" stroke-width="0" fill-opacity="1" />
  <text x="9.29552173614502" y="53.447479248046875" dx="0" dy="0" font-family="Arial" font-size="8.999999731779106pt" fill="#000000" style="text-anchor:start" transform="matrix(0.750000 0.000000 0.000000 0.750000 -499.7325439453125 -199.1576385498047)">ZoningReclassVector_Layer</text>
  <path d="M-368.7947692871094,-163.04458618164062 C-368.7947692871094,-143.09988403320312 -398.106201171875,-126.93151092529297 -434.2636413574219,-126.93150329589844 C-470.4211120605469,-126.93150329589844 -499.7325439453125,-143.09986877441406 -499.7325439453125,-163.04457092285156 C-499.7325439453125,-163.04457092285156 -499.7325439453125,-163.04457092285156 -499.7325439453125,-163.04457092285156 L-499.7325744628906,-163.04454040527344 C-499.73260498046875,-182.98924255371094 -470.42120361328125,-199.1576385498047 -434.2637023925781,-199.1576385498047 C-398.10626220703125,-199.15765380859375 -368.7947998046875,-182.9893035888672 -368.7947692871094,-163.04457092285156 C-368.7947692871094,-163.04457092285156 -368.7947692871094,-163.04457092285156 -368.7947692871094,-163.04457092285156 " stroke="none" fill="none" stroke-width="0.75" stroke-opacity="0" />
  <path d="M-135.757568359375,-216.67355346679688 C-135.757568359375,-203.5843963623047 -152.41256713867188,-192.97354125976562 -172.95753479003906,-192.97354125976562 C-193.50253295898438,-192.97354125976562 -210.1575469970703,-203.58438110351562 -210.15756225585938,-216.67352294921875 L-210.15756225585938,-216.67352294921875 C-210.15757751464844,-229.76268005371094 -193.50257873535156,-240.37353515625 -172.9575958251953,-240.37353515625 C-152.41259765625,-240.37355041503906 -135.75758361816406,-229.76271057128906 -135.757568359375,-216.6735382080078 C-135.757568359375,-216.6735382080078 -135.757568359375,-216.6735382080078 -135.757568359375,-216.6735382080078 " stroke="none" fill="#82CAED" fill-rule="evenodd" stroke-width="0" fill-opacity="1" />
  <text x="29.966190338134766" y="36.89672088623047" dx="0" dy="0" font-family="Arial" font-size="8.999999731779106pt" fill="#000000" style="text-anchor:start" transform="matrix(0.750000 0.000000 0.000000 0.750000 -210.1575469970703 -240.37353515625)">Count</text>
  <path d="M-135.757568359375,-216.67355346679688 C-135.757568359375,-203.5843963623047 -152.41256713867188,-192.97354125976562 -172.95753479003906,-192.97354125976562 C-193.50253295898438,-192.97354125976562 -210.1575469970703,-203.58438110351562 -210.15756225585938,-216.67352294921875 L-210.15756225585938,-216.67352294921875 C-210.15757751464844,-229.76268005371094 -193.50257873535156,-240.37353515625 -172.9575958251953,-240.37353515625 C-152.41259765625,-240.37355041503906 -135.75758361816406,-229.76271057128906 -135.757568359375,-216.6735382080078 C-135.757568359375,-216.6735382080078 -135.757568359375,-216.6735382080078 -135.757568359375,-216.6735382080078 " stroke="none" fill="none" stroke-width="0.75" stroke-opacity="0" />
  <path d="M102.3423080444336,-185.26809692382812 L159.7344207763672,-185.26809692382812 L159.73440551757812,-185.26809692382812 C164.43099975585938,-185.2681121826172 168.2383575439453,-181.4607696533203 168.2383575439453,-176.76417541503906 C168.2383575439453,-176.76417541503906 168.2383575439453,-176.76416015625 168.2383575439453,-176.76416015625 L168.2383575439453,-176.76416015625 L168.2383575439453,-146.37203979492188 L168.2383575439453,-146.37203979492188 C168.2383575439453,-141.67544555664062 164.43101501464844,-137.86810302734375 159.7344207763672,-137.86810302734375 L159.7344207763672,-137.86810302734375 L102.3423080444336,-137.86810302734375 L102.3423080444336,-137.86810302734375 C97.64571380615234,-137.86810302734375 93.83837127685547,-141.67544555664062 93.83837127685547,-146.37203979492188 L93.83837127685547,-176.76416015625 L93.83836364746094,-176.76416015625 C93.83836364746094,-181.46075439453125 97.64569854736328,-185.26809692382812 102.34229278564453,-185.2681121826172 " stroke="none" fill="#F2E279" fill-rule="evenodd" stroke-width="0" fill-opacity="1" />
  <text x="4.286189079284668" y="29.996719360351562" dx="0" dy="0" font-family="Arial" font-size="8.999999731779106pt" fill="#000000" style="text-anchor:start" transform="matrix(0.750000 0.000000 0.000000 0.750000 93.83837127685547 -185.26809692382812)">Select Layer By </text>
  <text x="14.962855339050293" y="43.79671859741211" dx="0" dy="0" font-family="Arial" font-size="8.999999731779106pt" fill="#000000" style="text-anchor:start" transform="matrix(0.750000 0.000000 0.000000 0.750000 93.83837127685547 -185.26809692382812)">Attribute (2)</text>
  <path d="M102.3423080444336,-185.26809692382812 L159.7344207763672,-185.26809692382812 L159.73440551757812,-185.26809692382812 C164.43099975585938,-185.2681121826172 168.2383575439453,-181.4607696533203 168.2383575439453,-176.76417541503906 C168.2383575439453,-176.76417541503906 168.2383575439453,-176.76416015625 168.2383575439453,-176.76416015625 L168.2383575439453,-176.76416015625 L168.2383575439453,-146.37203979492188 L168.2383575439453,-146.37203979492188 C168.2383575439453,-141.67544555664062 164.43101501464844,-137.86810302734375 159.7344207763672,-137.86810302734375 L159.7344207763672,-137.86810302734375 L102.3423080444336,-137.86810302734375 L102.3423080444336,-137.86810302734375 C97.64571380615234,-137.86810302734375 93.83837127685547,-141.67544555664062 93.83837127685547,-146.37203979492188 L93.83837127685547,-176.76416015625 L93.83836364746094,-176.76416015625 C93.83836364746094,-181.46075439453125 97.64569854736328,-185.26809692382812 102.34229278564453,-185.2681121826172 " stroke="none" fill="none" stroke-width="0.75" stroke-opacity="0" />
  <path d="M-266.6953430175781,-46.457706451416016 C-266.6953430175781,-26.761703491210938 -303.3108215332031,-10.794929504394531 -348.4782409667969,-10.794921875 C-393.64569091796875,-10.794921875 -430.26116943359375,-26.761680603027344 -430.26116943359375,-46.457698822021484 C-430.26116943359375,-46.457698822021484 -430.26116943359375,-46.457698822021484 -430.26116943359375,-46.457698822021484 L-430.2611999511719,-46.45766830444336 C-430.26123046875,-66.15367889404297 -393.6457824707031,-82.12046813964844 -348.47833251953125,-82.12047576904297 C-303.3108825683594,-82.12049102783203 -266.69537353515625,-66.15373229980469 -266.6953430175781,-46.457698822021484 C-266.6953430175781,-46.457698822021484 -266.6953430175781,-46.457698822021484 -266.6953430175781,-46.457698822021484 " stroke="none" fill="#83CC7C" fill-rule="evenodd" stroke-width="0" fill-opacity="1" />
  <text x="22.045522689819336" y="52.84709167480469" dx="0" dy="0" font-family="Arial" font-size="8.999999731779106pt" fill="#000000" style="text-anchor:start" transform="matrix(0.750000 0.000000 0.000000 0.750000 -430.26116943359375 -82.12047576904297)">ZoningReclassVector_Layer (2)</text>
  <path d="M-266.6953430175781,-46.457706451416016 C-266.6953430175781,-26.761703491210938 -303.3108215332031,-10.794929504394531 -348.4782409667969,-10.794921875 C-393.64569091796875,-10.794921875 -430.26116943359375,-26.761680603027344 -430.26116943359375,-46.457698822021484 C-430.26116943359375,-46.457698822021484 -430.26116943359375,-46.457698822021484 -430.26116943359375,-46.457698822021484 L-430.2611999511719,-46.45766830444336 C-430.26123046875,-66.15367889404297 -393.6457824707031,-82.12046813964844 -348.47833251953125,-82.12047576904297 C-303.3108825683594,-82.12049102783203 -266.69537353515625,-66.15373229980469 -266.6953430175781,-46.457698822021484 C-266.6953430175781,-46.457698822021484 -266.6953430175781,-46.457698822021484 -266.6953430175781,-46.457698822021484 " stroke="none" fill="none" stroke-width="0.75" stroke-opacity="0" />
  <path d="M88.81963348388672,-69.83818817138672 C88.81963348388672,-56.74903869628906 72.16462707519531,-46.13818359375 51.61966323852539,-46.138179779052734 C31.074678421020508,-46.13817596435547 14.419665336608887,-56.749019622802734 14.419648170471191,-69.83816528320312 L14.419645309448242,-69.83816528320312 C14.419628143310547,-82.92731475830078 31.07462501525879,-93.53816986083984 51.61961364746094,-93.53817749023438 C72.16460418701172,-93.53819274902344 88.81961059570312,-82.9273452758789 88.81963348388672,-69.83818054199219 C88.81963348388672,-69.83818054199219 88.81963348388672,-69.83818054199219 88.81963348388672,-69.83818054199219 " stroke="none" fill="#82CAED" fill-rule="evenodd" stroke-width="0" fill-opacity="1" />
  <text x="20.966190338134766" y="36.89672088623047" dx="0" dy="0" font-family="Arial" font-size="8.999999731779106pt" fill="#000000" style="text-anchor:start" transform="matrix(0.750000 0.000000 0.000000 0.750000 14.41965103149414 -93.53817749023438)">Count (2)</text>
  <path d="M88.81963348388672,-69.83818817138672 C88.81963348388672,-56.74903869628906 72.16462707519531,-46.13818359375 51.61966323852539,-46.138179779052734 C31.074678421020508,-46.13817596435547 14.419665336608887,-56.749019622802734 14.419648170471191,-69.83816528320312 L14.419645309448242,-69.83816528320312 C14.419628143310547,-82.92731475830078 31.07462501525879,-93.53816986083984 51.61961364746094,-93.53817749023438 C72.16460418701172,-93.53819274902344 88.81961059570312,-82.9273452758789 88.81963348388672,-69.83818054199219 C88.81963348388672,-69.83818054199219 88.81963348388672,-69.83818054199219 88.81963348388672,-69.83818054199219 " stroke="none" fill="none" stroke-width="0.75" stroke-opacity="0" />
  <path d="M-609.9931030273438,-79.62247467041016 L-552.6009521484375,-79.62247467041016 L-552.6010131835938,-79.62247467041016 C-547.9044189453125,-79.62248229980469 -544.0970458984375,-75.81514739990234 -544.0970458984375,-71.11854553222656 C-544.0970458984375,-71.11854553222656 -544.0970458984375,-71.11853790283203 -544.0970458984375,-71.11853790283203 L-544.0970458984375,-71.11853790283203 L-544.0970458984375,-40.726409912109375 L-544.0970458984375,-40.726417541503906 C-544.0970458984375,-36.029823303222656 -547.9043579101562,-32.22248077392578 -552.6009521484375,-32.222476959228516 L-552.6009521484375,-32.222476959228516 L-609.9931030273438,-32.222476959228516 L-609.9931030273438,-32.222476959228516 C-614.689697265625,-32.222476959228516 -618.4970092773438,-36.029815673828125 -618.4970092773438,-40.726409912109375 L-618.4970092773438,-71.11853790283203 L-618.4970703125,-71.11853790283203 C-618.4970703125,-75.81513214111328 -614.689697265625,-79.62247467041016 -609.9931030273438,-79.62248229980469 " stroke="none" fill="#F2E279" fill-rule="evenodd" stroke-width="0" fill-opacity="1" />
  <text x="25.633522033691406" y="36.89672088623047" dx="0" dy="0" font-family="Arial" font-size="8.999999731779106pt" fill="#000000" style="text-anchor:start" transform="matrix(0.750000 0.000000 0.000000 0.750000 -618.4970092773438 -79.62247467041016)">Intersect</text>
  <path d="M-609.9931030273438,-79.62247467041016 L-552.6009521484375,-79.62247467041016 L-552.6010131835938,-79.62247467041016 C-547.9044189453125,-79.62248229980469 -544.0970458984375,-75.81514739990234 -544.0970458984375,-71.11854553222656 C-544.0970458984375,-71.11854553222656 -544.0970458984375,-71.11853790283203 -544.0970458984375,-71.11853790283203 L-544.0970458984375,-71.11853790283203 L-544.0970458984375,-40.726409912109375 L-544.0970458984375,-40.726417541503906 C-544.0970458984375,-36.029823303222656 -547.9043579101562,-32.22248077392578 -552.6009521484375,-32.222476959228516 L-552.6009521484375,-32.222476959228516 L-609.9931030273438,-32.222476959228516 L-609.9931030273438,-32.222476959228516 C-614.689697265625,-32.222476959228516 -618.4970092773438,-36.029815673828125 -618.4970092773438,-40.726409912109375 L-618.4970092773438,-71.11853790283203 L-618.4970703125,-71.11853790283203 C-618.4970703125,-75.81513214111328 -614.689697265625,-79.62247467041016 -609.9931030273438,-79.62248229980469 " stroke="none" fill="none" stroke-width="0.75" stroke-opacity="0" />
  <path d="M-649.49365234375,-41.770450592041016 C-649.49365234375,-25.9290771484375 -683.871337890625,-13.087100982666016 -726.2782592773438,-13.087100982666016 C-768.6852416992188,-13.087093353271484 -803.0629272460938,-25.929061889648438 -803.0629272460938,-41.77044677734375 C-803.0629272460938,-41.77044677734375 -803.0629272460938,-41.77044677734375 -803.0629272460938,-41.77044677734375 L-803.06298828125,-41.770423889160156 C-803.06298828125,-57.61180114746094 -768.6853637695312,-70.45378875732422 -726.2783813476562,-70.45379638671875 C-683.8713989257812,-70.45381164550781 -649.4937133789062,-57.61184310913086 -649.49365234375,-41.77044677734375 C-649.49365234375,-41.77044677734375 -649.49365234375,-41.77044677734375 -649.49365234375,-41.77044677734375 " stroke="none" fill="#83CC7C" fill-rule="evenodd" stroke-width="0" fill-opacity="1" />
  <text x="33.388187408447266" y="43.54119110107422" dx="0" dy="0" font-family="Arial" font-size="8.999999731779106pt" fill="#000000" style="text-anchor:start" transform="matrix(0.750000 0.000000 0.000000 0.750000 -803.0629272460938 -70.45379638671875)">TargetAreasForUpzoning</text>
  <path d="M-649.49365234375,-41.770450592041016 C-649.49365234375,-25.9290771484375 -683.871337890625,-13.087100982666016 -726.2782592773438,-13.087100982666016 C-768.6852416992188,-13.087093353271484 -803.0629272460938,-25.929061889648438 -803.0629272460938,-41.77044677734375 C-803.0629272460938,-41.77044677734375 -803.0629272460938,-41.77044677734375 -803.0629272460938,-41.77044677734375 L-803.06298828125,-41.770423889160156 C-803.06298828125,-57.61180114746094 -768.6853637695312,-70.45378875732422 -726.2783813476562,-70.45379638671875 C-683.8713989257812,-70.45381164550781 -649.4937133789062,-57.61184310913086 -649.49365234375,-41.77044677734375 C-649.49365234375,-41.77044677734375 -649.49365234375,-41.77044677734375 -649.49365234375,-41.77044677734375 " stroke="none" fill="none" stroke-width="0.75" stroke-opacity="0" />
  <path d="M-767.4168090820312,-200.48895263671875 L-710.024658203125,-200.48895263671875 L-710.0247192382812,-200.48895263671875 C-705.328125,-200.4889678955078 -701.520751953125,-196.68162536621094 -701.520751953125,-191.9850311279297 C-701.520751953125,-191.9850311279297 -701.520751953125,-191.98501586914062 -701.520751953125,-191.98501586914062 L-701.520751953125,-191.98501586914062 L-701.520751953125,-161.5928955078125 L-701.520751953125,-161.5928955078125 C-701.520751953125,-156.89630126953125 -705.3280639648438,-153.08895874023438 -710.024658203125,-153.08895874023438 L-710.024658203125,-153.08895874023438 L-767.4168090820312,-153.08895874023438 L-767.4168090820312,-153.08895874023438 C-772.1134033203125,-153.08895874023438 -775.9207153320312,-156.89630126953125 -775.9207153320312,-161.5928955078125 L-775.9207153320312,-191.98501586914062 L-775.9207763671875,-191.98501586914062 C-775.9207763671875,-196.68161010742188 -772.1134033203125,-200.48895263671875 -767.4168090820312,-200.4889678955078 " stroke="none" fill="#F2E279" fill-rule="evenodd" stroke-width="0" fill-opacity="1" />
  <text x="13.302855491638184" y="29.996719360351562" dx="0" dy="0" font-family="Arial" font-size="8.999999731779106pt" fill="#000000" style="text-anchor:start" transform="matrix(0.750000 0.000000 0.000000 0.750000 -775.9207153320312 -200.48895263671875)">Symmetrical </text>
  <text x="18.73952293395996" y="43.79671859741211" dx="0" dy="0" font-family="Arial" font-size="8.999999731779106pt" fill="#000000" style="text-anchor:start" transform="matrix(0.750000 0.000000 0.000000 0.750000 -775.9207153320312 -200.48895263671875)">Difference</text>
  <path d="M-767.4168090820312,-200.48895263671875 L-710.024658203125,-200.48895263671875 L-710.0247192382812,-200.48895263671875 C-705.328125,-200.4889678955078 -701.520751953125,-196.68162536621094 -701.520751953125,-191.9850311279297 C-701.520751953125,-191.9850311279297 -701.520751953125,-191.98501586914062 -701.520751953125,-191.98501586914062 L-701.520751953125,-191.98501586914062 L-701.520751953125,-161.5928955078125 L-701.520751953125,-161.5928955078125 C-701.520751953125,-156.89630126953125 -705.3280639648438,-153.08895874023438 -710.024658203125,-153.08895874023438 L-710.024658203125,-153.08895874023438 L-767.4168090820312,-153.08895874023438 L-767.4168090820312,-153.08895874023438 C-772.1134033203125,-153.08895874023438 -775.9207153320312,-156.89630126953125 -775.9207153320312,-161.5928955078125 L-775.9207153320312,-191.98501586914062 L-775.9207763671875,-191.98501586914062 C-775.9207763671875,-196.68161010742188 -772.1134033203125,-200.48895263671875 -767.4168090820312,-200.4889678955078 " stroke="none" fill="none" stroke-width="0.75" stroke-opacity="0" />
  <path d="M-543.2837524414062,-244.70022583007812 C-543.2837524414062,-225.2318572998047 -581.8395385742188,-209.44961547851562 -629.400390625,-209.44960021972656 C-676.9613037109375,-209.44960021972656 -715.51708984375,-225.23184204101562 -715.51708984375,-244.70022583007812 C-715.51708984375,-244.70022583007812 -715.51708984375,-244.70022583007812 -715.51708984375,-244.70022583007812 L-715.5171508789062,-244.7001953125 C-715.5171508789062,-264.1685791015625 -676.96142578125,-279.9508361816406 -629.4005126953125,-279.9508361816406 C-581.839599609375,-279.95086669921875 -543.2838134765625,-264.16864013671875 -543.2837524414062,-244.70022583007812 C-543.2837524414062,-244.70022583007812 -543.2837524414062,-244.70022583007812 -543.2837524414062,-244.70022583007812 " stroke="none" fill="#83CC7C" fill-rule="evenodd" stroke-width="0" fill-opacity="1" />
  <text x="29.828189849853516" y="52.29754638671875" dx="0" dy="0" font-family="Arial" font-size="8.999999731779106pt" fill="#000000" style="text-anchor:start" transform="matrix(0.750000 0.000000 0.000000 0.750000 -715.51708984375 -279.9508361816406)">TargetAreasForNewBusRoutes</text>
  <path d="M-543.2837524414062,-244.70022583007812 C-543.2837524414062,-225.2318572998047 -581.8395385742188,-209.44961547851562 -629.400390625,-209.44960021972656 C-676.9613037109375,-209.44960021972656 -715.51708984375,-225.23184204101562 -715.51708984375,-244.70022583007812 C-715.51708984375,-244.70022583007812 -715.51708984375,-244.70022583007812 -715.51708984375,-244.70022583007812 L-715.5171508789062,-244.7001953125 C-715.5171508789062,-264.1685791015625 -676.96142578125,-279.9508361816406 -629.4005126953125,-279.9508361816406 C-581.839599609375,-279.95086669921875 -543.2838134765625,-264.16864013671875 -543.2837524414062,-244.70022583007812 C-543.2837524414062,-244.70022583007812 -543.2837524414062,-244.70022583007812 -543.2837524414062,-244.70022583007812 " stroke="none" fill="none" stroke-width="0.75" stroke-opacity="0" />
  <path d="M-434.2636413574219,-238.04457092285156 L-337.7525939941406,-238.04457092285156 L-337.7525939941406,-200.54457092285156 L-434.2636413574219,-200.54457092285156 L-434.2636413574219,-238.04457092285156 " stroke="none" fill="none" fill-rule="evenodd" stroke-width="0" fill-opacity="0" />
  <text x="7.530189037322998" y="22.598411560058594" dx="0" dy="0" font-family="Arial" font-size="13.49999959766866pt" fill="#555555" style="text-anchor:start" transform="matrix(0.750000 0.000000 0.000000 0.750000 -434.2636413574219 -238.04457092285156)">High Density </text>
  <text x="35.535186767578125" y="43.29507827758789" dx="0" dy="0" font-family="Arial" font-size="13.49999959766866pt" fill="#555555" style="text-anchor:start" transform="matrix(0.750000 0.000000 0.000000 0.750000 -434.2636413574219 -238.04457092285156)">Areas</text>
  <path d="M-434.2636413574219,-238.04457092285156 L-337.7525939941406,-238.04457092285156 L-337.7525939941406,-200.54457092285156 L-434.2636413574219,-200.54457092285156 L-434.2636413574219,-238.04457092285156 " stroke="none" fill="none" stroke-width="0.75" stroke-opacity="0" />
  <path d="M-348.478271484375,-121.45769500732422 L-245.30177307128906,-121.45769500732422 L-245.30177307128906,-83.95769500732422 L-348.478271484375,-83.95769500732422 L-348.478271484375,-121.45769500732422 " stroke="none" fill="none" fill-rule="evenodd" stroke-width="0" fill-opacity="0" />
  <text x="15.467521667480469" y="22.598411560058594" dx="0" dy="0" font-family="Arial" font-size="13.49999959766866pt" fill="#555555" style="text-anchor:start" transform="matrix(0.750000 0.000000 0.000000 0.750000 -348.478271484375 -121.45769500732422)">Low Density </text>
  <text x="39.978519439697266" y="43.29507827758789" dx="0" dy="0" font-family="Arial" font-size="13.49999959766866pt" fill="#555555" style="text-anchor:start" transform="matrix(0.750000 0.000000 0.000000 0.750000 -348.478271484375 -121.45769500732422)">Areas</text>
  <path d="M-348.478271484375,-121.45769500732422 L-245.30177307128906,-121.45769500732422 L-245.30177307128906,-83.95769500732422 L-348.478271484375,-83.95769500732422 L-348.478271484375,-121.45769500732422 " stroke="none" fill="none" stroke-width="0.75" stroke-opacity="0" />
  <path d="M-1098.0721435546875,-419.7618103027344 L-1023.0721435546875,-419.7618103027344 L-1023.0721435546875,-382.2618103027344 L-1098.0721435546875,-382.2618103027344 L-1098.0721435546875,-419.7618103027344 " stroke="none" fill="none" fill-rule="evenodd" stroke-width="0" fill-opacity="0" />
  <text x="40.6975212097168" y="32.946746826171875" dx="0" dy="0" font-family="Arial" font-size="13.49999959766866pt" fill="#555555" style="text-anchor:start" transform="matrix(0.750000 0.000000 0.000000 0.750000 -1098.0721435546875 -419.7618103027344)">1</text>
  <path d="M-1098.0721435546875,-419.7618103027344 L-1023.0721435546875,-419.7618103027344 L-1023.0721435546875,-382.2618103027344 L-1098.0721435546875,-382.2618103027344 L-1098.0721435546875,-419.7618103027344 " stroke="none" fill="none" stroke-width="0.75" stroke-opacity="0" />
  <path d="M-745.926513671875,-411.28594970703125 L-670.926513671875,-411.28594970703125 L-670.926513671875,-373.78594970703125 L-745.926513671875,-373.78594970703125 L-745.926513671875,-411.28594970703125 " stroke="none" fill="none" fill-rule="evenodd" stroke-width="0" fill-opacity="0" />
  <text x="40.6975212097168" y="32.946746826171875" dx="0" dy="0" font-family="Arial" font-size="13.49999959766866pt" fill="#555555" style="text-anchor:start" transform="matrix(0.750000 0.000000 0.000000 0.750000 -745.926513671875 -411.28594970703125)">2</text>
  <path d="M-745.926513671875,-411.28594970703125 L-670.926513671875,-411.28594970703125 L-670.926513671875,-373.78594970703125 L-745.926513671875,-373.78594970703125 L-745.926513671875,-411.28594970703125 " stroke="none" fill="none" stroke-width="0.75" stroke-opacity="0" />
  <path d="M-407.54998779296875,-388.04998779296875 L-332.54998779296875,-388.04998779296875 L-332.54998779296875,-350.54998779296875 L-407.54998779296875,-350.54998779296875 L-407.54998779296875,-388.04998779296875 " stroke="none" fill="none" fill-rule="evenodd" stroke-width="0" fill-opacity="0" />
  <text x="40.6975212097168" y="32.946746826171875" dx="0" dy="0" font-family="Arial" font-size="13.49999959766866pt" fill="#555555" style="text-anchor:start" transform="matrix(0.750000 0.000000 0.000000 0.750000 -407.54998779296875 -388.04998779296875)">3</text>
  <path d="M-407.54998779296875,-388.04998779296875 L-332.54998779296875,-388.04998779296875 L-332.54998779296875,-350.54998779296875 L-407.54998779296875,-350.54998779296875 L-407.54998779296875,-388.04998779296875 " stroke="none" fill="none" stroke-width="0.75" stroke-opacity="0" />
  <path d="M-106.31707000732422,-382.935546875 L-31.31707000732422,-382.935546875 L-31.31707000732422,-345.435546875 L-106.31707000732422,-345.435546875 L-106.31707000732422,-382.935546875 " stroke="none" fill="none" fill-rule="evenodd" stroke-width="0" fill-opacity="0" />
  <text x="40.6975212097168" y="32.946746826171875" dx="0" dy="0" font-family="Arial" font-size="13.49999959766866pt" fill="#555555" style="text-anchor:start" transform="matrix(0.750000 0.000000 0.000000 0.750000 -106.31707000732422 -382.935546875)">4</text>
  <path d="M-106.31707000732422,-382.935546875 L-31.31707000732422,-382.935546875 L-31.31707000732422,-345.435546875 L-106.31707000732422,-345.435546875 L-106.31707000732422,-382.935546875 " stroke="none" fill="none" stroke-width="0.75" stroke-opacity="0" />
  <path d="M-41.582984924316406,-242.81707763671875 L33.417015075683594,-242.81707763671875 L33.417015075683594,-205.31707763671875 L-41.582984924316406,-205.31707763671875 L-41.582984924316406,-242.81707763671875 " stroke="none" fill="none" fill-rule="evenodd" stroke-width="0" fill-opacity="0" />
  <text x="3.1908555030822754" y="22.598411560058594" dx="0" dy="0" font-family="Arial" font-size="13.49999959766866pt" fill="#555555" style="text-anchor:start" transform="matrix(0.750000 0.000000 0.000000 0.750000 -41.582984924316406 -242.81707763671875)">5 </text>
  <text x="20.207857131958008" y="22.598411560058594" dx="0" dy="0" font-family="Arial" font-size="13.49999959766866pt" fill="#555555" style="text-anchor:start" transform="matrix(0.750000 0.000000 0.000000 0.750000 -41.582984924316406 -242.81707763671875)">-</text>
  <text x="26.696189880371094" y="22.598411560058594" dx="0" dy="0" font-family="Arial" font-size="13.49999959766866pt" fill="#555555" style="text-anchor:start" transform="matrix(0.750000 0.000000 0.000000 0.750000 -41.582984924316406 -242.81707763671875)"> </text>
  <text x="28.1951904296875" y="22.598411560058594" dx="0" dy="0" font-family="Arial" font-size="13.49999959766866pt" fill="#555555" style="text-anchor:start" transform="matrix(0.750000 0.000000 0.000000 0.750000 -41.582984924316406 -242.81707763671875)">Selects </text>
  <text x="10.606521606445312" y="43.29507827758789" dx="0" dy="0" font-family="Arial" font-size="13.49999959766866pt" fill="#555555" style="text-anchor:start" transform="matrix(0.750000 0.000000 0.000000 0.750000 -41.582984924316406 -242.81707763671875)">"1" Areas</text>
  <path d="M-41.582984924316406,-242.81707763671875 L33.417015075683594,-242.81707763671875 L33.417015075683594,-205.31707763671875 L-41.582984924316406,-205.31707763671875 L-41.582984924316406,-242.81707763671875 " stroke="none" fill="none" stroke-width="0.75" stroke-opacity="0" />
  <path d="M-317.8871154785156,-415.74481201171875 L-187.5310516357422,-415.74481201171875 L-187.5310516357422,-312.34716796875 L-317.8871154785156,-312.34716796875 L-317.8871154785156,-415.74481201171875 " stroke="none" fill="none" fill-rule="evenodd" stroke-width="0" fill-opacity="0" />
  <text x="3.5701889991760254" y="56.18183898925781" dx="0" dy="0" font-family="Arial" font-size="13.49999959766866pt" fill="#555555" style="text-anchor:start" transform="matrix(0.750000 0.000000 0.000000 0.750000 -317.8871154785156 -415.74481201171875)">Rezones areas into </text>
  <text x="3.5641889572143555" y="76.87850952148438" dx="0" dy="0" font-family="Arial" font-size="13.49999959766866pt" fill="#555555" style="text-anchor:start" transform="matrix(0.750000 0.000000 0.000000 0.750000 -317.8871154785156 -415.74481201171875)">1 (high density) and </text>
  <text x="24.590856552124023" y="97.5751724243164" dx="0" dy="0" font-family="Arial" font-size="13.49999959766866pt" fill="#555555" style="text-anchor:start" transform="matrix(0.750000 0.000000 0.000000 0.750000 -317.8871154785156 -415.74481201171875)">0 (low density)</text>
  <path d="M-317.8871154785156,-415.74481201171875 L-187.5310516357422,-415.74481201171875 L-187.5310516357422,-312.34716796875 L-317.8871154785156,-312.34716796875 L-317.8871154785156,-415.74481201171875 " stroke="none" fill="none" stroke-width="0.75" stroke-opacity="0" />
  <path d="M131.0383758544922,-236.56808471679688 L206.0383758544922,-236.56808471679688 L206.0383758544922,-199.06808471679688 L131.0383758544922,-199.06808471679688 L131.0383758544922,-236.56808471679688 " stroke="none" fill="none" fill-rule="evenodd" stroke-width="0" fill-opacity="0" />
  <text x="3.1908555030822754" y="22.598411560058594" dx="0" dy="0" font-family="Arial" font-size="13.49999959766866pt" fill="#555555" style="text-anchor:start" transform="matrix(0.750000 0.000000 0.000000 0.750000 131.0383758544922 -236.56808471679688)">6 </text>
  <text x="20.207857131958008" y="22.598411560058594" dx="0" dy="0" font-family="Arial" font-size="13.49999959766866pt" fill="#555555" style="text-anchor:start" transform="matrix(0.750000 0.000000 0.000000 0.750000 131.0383758544922 -236.56808471679688)">-</text>
  <text x="26.696189880371094" y="22.598411560058594" dx="0" dy="0" font-family="Arial" font-size="13.49999959766866pt" fill="#555555" style="text-anchor:start" transform="matrix(0.750000 0.000000 0.000000 0.750000 131.0383758544922 -236.56808471679688)"> </text>
  <text x="28.1951904296875" y="22.598411560058594" dx="0" dy="0" font-family="Arial" font-size="13.49999959766866pt" fill="#555555" style="text-anchor:start" transform="matrix(0.750000 0.000000 0.000000 0.750000 131.0383758544922 -236.56808471679688)">Selects </text>
  <text x="10.606521606445312" y="43.29507827758789" dx="0" dy="0" font-family="Arial" font-size="13.49999959766866pt" fill="#555555" style="text-anchor:start" transform="matrix(0.750000 0.000000 0.000000 0.750000 131.0383758544922 -236.56808471679688)">"0" Areas</text>
  <path d="M131.0383758544922,-236.56808471679688 L206.0383758544922,-236.56808471679688 L206.0383758544922,-199.06808471679688 L131.0383758544922,-199.06808471679688 L131.0383758544922,-236.56808471679688 " stroke="none" fill="none" stroke-width="0.75" stroke-opacity="0" />
  <path d="M-796.0249633789062,-232.6875457763672 L-721.0249633789062,-232.6875457763672 L-721.0249633789062,-195.1875457763672 L-796.0249633789062,-195.1875457763672 L-796.0249633789062,-232.6875457763672 " stroke="none" fill="none" fill-rule="evenodd" stroke-width="0" fill-opacity="0" />
  <text x="40.6975212097168" y="32.946746826171875" dx="0" dy="0" font-family="Arial" font-size="13.49999959766866pt" fill="#555555" style="text-anchor:start" transform="matrix(0.750000 0.000000 0.000000 0.750000 -796.0249633789062 -232.6875457763672)">7</text>
  <path d="M-796.0249633789062,-232.6875457763672 L-721.0249633789062,-232.6875457763672 L-721.0249633789062,-195.1875457763672 L-796.0249633789062,-195.1875457763672 L-796.0249633789062,-232.6875457763672 " stroke="none" fill="none" stroke-width="0.75" stroke-opacity="0" />
  <path d="M-605.7467651367188,-114.87728881835938 L-530.7467651367188,-114.87728881835938 L-530.7467651367188,-77.37728881835938 L-605.7467651367188,-77.37728881835938 L-605.7467651367188,-114.87728881835938 " stroke="none" fill="none" fill-rule="evenodd" stroke-width="0" fill-opacity="0" />
  <text x="40.6975212097168" y="32.946746826171875" dx="0" dy="0" font-family="Arial" font-size="13.49999959766866pt" fill="#555555" style="text-anchor:start" transform="matrix(0.750000 0.000000 0.000000 0.750000 -605.7467651367188 -114.87728881835938)">8</text>
  <path d="M-605.7467651367188,-114.87728881835938 L-530.7467651367188,-114.87728881835938 L-530.7467651367188,-77.37728881835938 L-605.7467651367188,-77.37728881835938 L-605.7467651367188,-114.87728881835938 " stroke="none" fill="none" stroke-width="0.75" stroke-opacity="0" />
</svg>